<?xml version="1.0" encoding="UTF-8"?>
<svg version="1.1" xmlns="http://www.w3.org/2000/svg" width="1024" height="1024">
<path d="M0 0 C337.92 0 675.84 0 1024 0 C1024 337.92 1024 675.84 1024 1024 C686.08 1024 348.16 1024 0 1024 C0 686.08 0 348.16 0 0 Z " fill="#0A0A0A" transform="translate(0,0)"/>
<path d="M0 0 C191.17060811 0 191.17060811 0 225.3125 32.9375 C241.39749408 49.6461449 250.91744813 70.61722351 256 93 C256.226875 93.97453125 256.45375 94.9490625 256.6875 95.953125 C262.69478041 127.15760934 256.14675196 162.09366844 238.48193359 188.48681641 C226.64214929 205.43230239 211.14651893 217.29680804 192 225 C191.34 225 190.68 225 190 225 C195.69516648 235.35625125 201.67135085 245.52565327 207.7722168 255.64770508 C213.96720263 265.92781797 220.0950556 276.24697623 226.21435547 286.57226562 C230.36529883 293.57424235 234.53427225 300.56481099 238.72686768 307.54193115 C242.38709313 313.63670381 246.00784203 319.75458322 249.625 325.875 C253.84891079 333.01943314 258.08464982 340.15614178 262.3671875 347.265625 C262.71721832 347.84704254 263.06724915 348.42846008 263.42788696 349.02749634 C265.10851969 351.81821761 266.79192179 354.60721476 268.47900391 357.39404297 C269.07374512 358.38033691 269.66848633 359.36663086 270.28125 360.3828125 C270.80783203 361.25309082 271.33441406 362.12336914 271.87695312 363.02001953 C273 365 273 365 273 366 C262.48245851 366.37179129 251.96649369 366.65551968 241.44370461 366.82899475 C236.55629051 366.91229081 231.67338957 367.02508007 226.78857422 367.20703125 C222.06783761 367.3817568 217.35141841 367.47670453 212.62769699 367.51803589 C210.83222798 367.54745545 209.03697929 367.6049243 207.24336624 367.69168091 C193.59127143 368.32536094 193.59127143 368.32536094 189.28855324 364.46417809 C186.1909279 360.65742656 184.00530352 356.47298693 181.96320534 352.02999783 C180.48789917 348.92072486 178.69816383 346.04792696 176.90234375 343.11328125 C175.57837015 340.84773111 174.25681064 338.58076871 172.9375 336.3125 C172.21152509 335.06877603 171.48528102 333.82520913 170.75878906 332.58178711 C169.25659944 330.01021404 167.75553745 327.43798824 166.25537109 324.86523438 C162.59642983 318.59208601 158.92290721 312.32747763 155.25 306.0625 C154.89489349 305.45660034 154.53978699 304.85070068 154.17391968 304.22644043 C148.00424308 293.69974107 141.80643408 283.18987062 135.59130859 272.68994141 C133.89908398 269.82941198 132.20905993 266.96759125 130.51953125 264.10546875 C129.94106445 263.12570068 129.36259766 262.14593262 128.76660156 261.13647461 C127.67327646 259.28455732 126.58015908 257.43251737 125.48730469 255.58032227 C124.73755371 254.31079712 124.73755371 254.31079712 123.97265625 253.015625 C123.2458667 251.78295898 123.2458667 251.78295898 122.50439453 250.52539062 C121.44443551 248.74606311 120.37122999 246.97459362 119.28857422 245.20898438 C118.73830566 244.30986328 118.18803711 243.41074219 117.62109375 242.484375 C117.11892334 241.67194336 116.61675293 240.85951172 116.09936523 240.02246094 C115 238 115 238 115 236 C100.81 236 86.62 236 72 236 C72 278.9 72 321.8 72 366 C48.24 366 24.48 366 0 366 C0 245.22 0 124.44 0 0 Z " fill="#FEFEFE" transform="translate(272,314)"/>
<path d="M0 0 C25.41 0 50.82 0 77 0 C77 98.01 77 196.02 77 297 C118.58 297 160.16 297 203 297 C203 319.77 203 342.54 203 366 C136.01 366 69.02 366 0 366 C0 245.22 0 124.44 0 0 Z " fill="#FEFEFE" transform="translate(560,314)"/>
<path d="M0 0 C10.56 -0.061875 21.12 -0.12375 32 -0.1875 C35.3 -0.21481201 38.6 -0.24212402 42 -0.27026367 C44.66666297 -0.27903975 47.33333001 -0.28668102 50 -0.29296875 C51.00208496 -0.30472893 51.00208496 -0.30472893 52.02441406 -0.31672668 C70.0975663 -0.51770424 87.59835108 1.87139511 101.4375 14.5625 C112.63574221 26.64627042 115.63213331 41.03690262 115.3125 57.00390625 C114.70617656 70.40618051 108.78357782 82.14430193 99.05078125 91.25390625 C89.27537953 99.57696257 76.6384074 103.13612506 63.91479492 103.11352539 C63.21042706 103.11364593 62.50605921 103.11376646 61.78034687 103.11389065 C59.51368804 103.11314778 57.24711275 103.10554824 54.98046875 103.09765625 C53.57572469 103.09618489 52.17098007 103.09516537 50.76623535 103.09460449 C45.57331518 103.08937411 40.38040676 103.07541285 35.1875 103.0625 C23.575625 103.041875 11.96375 103.02125 0 103 C0 69.01 0 35.02 0 0 Z " fill="#0B0B0B" transform="translate(344,381)"/>
<path d="M0 0 C0.66 0 1.32 0 2 0 C2 32.67 2 65.34 2 99 C25.1 99 48.2 99 72 99 C71.67 99.66 71.34 100.32 71 101 C47.57 101 24.14 101 0 101 C0 67.67 0 34.34 0 0 Z " fill="#030303" transform="translate(344,383)"/>
<path d="M0 0 C14.19 0 28.38 0 43 0 C43.66 1.98 44.32 3.96 45 6 C44.38163521 5.27087654 44.38163521 5.27087654 43.7507782 4.52702332 C41.64656767 2.69173741 40.73799179 2.61100933 37.98754883 2.56762695 C36.7866436 2.53793571 36.7866436 2.53793571 35.56147766 2.50764465 C34.27227669 2.49805977 34.27227669 2.49805977 32.95703125 2.48828125 C32.0734343 2.47033005 31.18983734 2.45237885 30.27946472 2.43388367 C27.4571917 2.37970004 24.63508856 2.34585939 21.8125 2.3125 C19.89906486 2.27933401 17.98565216 2.24484502 16.07226562 2.20898438 C11.38163285 2.12396901 6.69105116 2.05719638 2 2 C2 4.97 2 7.94 2 11 C1.34 10.67 0.68 10.34 0 10 C0 6.7 0 3.4 0 0 Z " fill="#010101" transform="translate(344,550)"/>
<path d="M0 0 C4.37934119 0.51958285 8.68803391 1.05675742 13 2 C12.01 3.485 12.01 3.485 11 5 C7.7 4.34 4.4 3.68 1 3 C0.67 2.01 0.34 1.02 0 0 Z " fill="#121313" transform="translate(435,314)"/>
<path d="M0 0 C0.66 0.33 1.32 0.66 2 1 C1.67 3.64 1.34 6.28 1 9 C0.34 9 -0.32 9 -1 9 C-0.67 9.99 -0.34 10.98 0 12 C-0.99 12.33 -1.98 12.66 -3 13 C-2.01 8.71 -1.02 4.42 0 0 Z " fill="#161616" transform="translate(526,464)"/>
<path d="M0 0 C0.33 0 0.66 0 1 0 C0.67 3.3 0.34 6.6 0 10 C-0.99 10 -1.98 10 -3 10 C-2.67 7.36 -2.34 4.72 -2 2 C-1.34 2 -0.68 2 0 2 C0 1.34 0 0.68 0 0 Z " fill="#131313" transform="translate(530,452)"/>
<path d="M0 0 C0 0.99 0 1.98 0 3 C-6.93 2.505 -6.93 2.505 -14 2 C-14 1.67 -14 1.34 -14 1 C-9.32798795 -0.20568053 -4.78503708 -0.09382426 0 0 Z " fill="#161616" transform="translate(433,313)"/>
<path d="M0 0 C0.66 0 1.32 0 2 0 C1.67 0.99 1.34 1.98 1 3 C0.01 2.67 -0.98 2.34 -2 2 C-1.34 1.34 -0.68 0.68 0 0 Z M-4 3 C-3.34 3 -2.68 3 -2 3 C-2.33 3.99 -2.66 4.98 -3 6 C-3.99 5.67 -4.98 5.34 -6 5 C-5.34 4.34 -4.68 3.68 -4 3 Z M-8 6 C-7.34 6.33 -6.68 6.66 -6 7 C-6.99 7 -7.98 7 -9 7 C-8.67 6.67 -8.34 6.34 -8 6 Z " fill="#101010" transform="translate(494,520)"/>
<path d="M0 0 C0 0.99 0 1.98 0 3 C-3.3 2.34 -6.6 1.68 -10 1 C-10 0.67 -10 0.34 -10 0 C-6.30458414 -0.95024979 -3.69541586 -0.95024979 0 0 Z " fill="#131212" transform="translate(429,385)"/>
</svg>
